<?xml version="1.0" encoding="UTF-8"?>
<svg width="37px" height="36px" viewBox="0 0 37 36" version="1.1" xmlns="http://www.w3.org/2000/svg" xmlns:xlink="http://www.w3.org/1999/xlink">
    <!-- Generator: Sketch 51.3 (57544) - http://www.bohemiancoding.com/sketch -->
    <title>Иконка телефона</title>
    <desc>Created with Sketch.</desc>
    <defs></defs>
    <g id="Page-1" stroke="none" stroke-width="1" fill="none" fill-rule="evenodd">
        <g id="Доставка_mobile" transform="translate(-24.000000, -2123.000000)" fill="#FFFFFF">
            <path d="M57.556027,2126.45229 C62.147991,2131.01772 62.147991,2138.4408 57.556027,2143.03671 C53.6842227,2146.89306 47.7735472,2147.48753 43.2658175,2144.86576 L43.2275814,2144.82784 C41.4719827,2146.17683 39.5553902,2146.3748 38.1984427,2146.17683 C37.7536974,2146.09271 37.6770337,2145.49843 38.0755891,2145.30008 C39.2790175,2144.70561 40.0765117,2143.51677 40.5136864,2142.56409 L40.4369269,2142.48778 C36.3199904,2137.88443 36.4809841,2130.85767 40.9122419,2126.45229 C45.496827,2121.84924 52.9636797,2121.84924 57.556027,2126.45229 Z M49.2532524,2143.71511 C54.2438677,2143.71511 58.27657,2139.71386 58.27657,2134.75212 C58.27657,2129.79076 54.2438677,2125.7817 49.2532524,2125.7817 C44.2622539,2125.7817 40.2299349,2129.78295 40.2299349,2134.74469 C40.2299349,2139.70605 44.2622539,2143.71511 49.2532524,2143.71511 Z M49.4385861,2132.19494 C48.5994168,2132.19494 47.9140488,2131.52144 47.8757428,2130.64126 C47.9140488,2129.80701 48.5994168,2129.12566 49.4385861,2129.12566 C50.2781403,2129.12566 50.9631234,2129.84509 50.9631234,2130.67934 C50.9631234,2131.51397 50.2781403,2132.19494 49.4385861,2132.19494 Z M51.2128816,2139.0582 C51.4479761,2138.94346 51.6072336,2139.10399 51.5768989,2139.30973 C51.5768989,2139.43191 51.455465,2139.59215 51.3795332,2139.66846 C50.8259236,2140.22548 50.1512593,2140.58431 49.3624604,2140.58431 C49.005932,2140.58431 48.61158,2140.54597 48.255336,2140.50791 C47.6636183,2140.43151 46.8674253,2139.67628 46.9885748,2138.8827 C47.0644118,2138.37117 47.1481168,2137.81414 47.2236693,2137.25711 C47.421035,2136.3033 47.5802925,2135.34948 47.7394553,2134.39566 L47.7394553,2134.19746 C47.7394553,2133.80067 47.6180214,2133.64043 47.2236693,2133.60209 C47.0266829,2133.60209 46.8674253,2133.56403 46.7081678,2133.52607 C46.5108022,2133.44185 46.4349652,2133.28943 46.4349652,2133.16724 C46.4730733,2133.007 46.5945072,2132.88482 46.7914936,2132.84685 C46.9129275,2132.8088 47.0266829,2132.8088 47.1481168,2132.8088 L49.9920018,2132.8088 C50.3482458,2132.8088 50.5833402,2132.96904 50.5833402,2133.32748 C50.6289372,2133.60991 50.5456114,2133.93029 50.5075033,2134.2049 C50.3104221,2135.2809 50.1130565,2136.38752 49.91607,2137.46314 C49.8402331,2137.82196 49.7569073,2138.18041 49.7187044,2138.53914 C49.6809755,2138.73744 49.7187044,2138.89796 49.7569073,2139.09617 C49.832365,2139.29475 49.9920018,2139.45499 50.2268119,2139.41665 C50.4241775,2139.37859 50.5833402,2139.33281 50.7804215,2139.25641 C50.9399634,2139.21844 51.053624,2139.09617 51.2128816,2139.0582 Z M49.4303584,2152.94935 C49.588104,2153.21044 49.588104,2154.45729 49.0644041,2155.91502 C48.5408005,2157.37064 46.0321836,2158.70012 44.8250159,2158.88069 C43.7425615,2159.04165 42.3754332,2159.10697 40.8703016,2158.6326 C39.9588828,2158.3454 38.7888883,2157.96246 37.2903053,2157.31842 C30.9912684,2154.61825 26.8766899,2148.31928 26.5634137,2147.90363 C26.2501376,2147.48588 24,2144.52241 24,2141.4523 C24,2138.38229 25.6212739,2136.87435 26.1974594,2136.24992 C26.7737412,2135.6255 27.4529716,2135.46884 27.8714115,2135.46884 C28.2898514,2135.46884 28.7083876,2135.47314 29.0742456,2135.49055 C29.4598459,2135.51016 29.9791158,2135.3448 30.4874071,2136.56113 C31.0110107,2137.80999 32.2664266,2140.88009 32.4241722,2141.19121 C32.5819178,2141.50452 32.6849628,2141.86795 32.476754,2142.2857 C32.2664266,2142.70125 32.1634779,2142.96024 31.8479867,2143.32568 C31.5346143,2143.68911 31.1884985,2144.13727 30.905847,2144.41797 C30.5925708,2144.72908 30.266101,2145.06631 30.631959,2145.69073 C30.9979134,2146.31535 32.257663,2148.35629 34.1243189,2150.00989 C36.5234384,2152.13556 38.5457213,2152.79269 39.1744886,2153.1061 C39.8033522,2153.41722 40.1692102,2153.365 40.5350682,2152.94935 C40.9010225,2152.5338 42.1037603,2151.12819 42.5222965,2150.50377 C42.9407364,2149.87924 43.3613912,2149.98368 43.9353617,2150.19265 C44.5116434,2150.39933 47.5986607,2151.90937 48.2275243,2152.22048 C48.854173,2152.5338 49.2725165,2152.68835 49.4303584,2152.94935 Z" id="Иконка-телефона"></path>
        </g>
    </g>
</svg>